<svg xmlns="http://www.w3.org/2000/svg" viewBox="0 0 64 64" fill="none">
  <rect width="64" height="64" rx="14" fill="#E2E8F0"/>
  <path d="M14 22C14 19.7909 15.7909 18 18 18H28L32 22H46C48.2091 22 50 23.7909 50 26V42C50 44.2091 48.2091 46 46 46H18C15.7909 46 14 44.2091 14 42V22Z" fill="#334155"/>
  <path d="M24 30C24 31.6569 22.6569 33 21 33C19.3431 33 18 31.6569 18 30C18 28.3431 19.3431 27 21 27C22.6569 27 24 28.3431 24 30Z" fill="#F8FAFC"/>
  <path d="M46 38C46 39.6569 44.6569 41 43 41C41.3431 41 40 39.6569 40 38C40 36.3431 41.3431 35 43 35C44.6569 35 46 36.3431 46 38Z" fill="#F8FAFC"/>
  <path d="M22 31.4L33 37L41 38" stroke="#F8FAFC" stroke-width="2.8" stroke-linecap="round" stroke-linejoin="round"/>
  <path d="M36 37C36 38.6569 34.6569 40 33 40C31.3431 40 30 38.6569 30 37C30 35.3431 31.3431 34 33 34C34.6569 34 36 35.3431 36 37Z" fill="#F8FAFC"/>
</svg>
